<?xml version="1.0" encoding="UTF-8"?>
<svg id="Layer_2" data-name="Layer 2" xmlns="http://www.w3.org/2000/svg" viewBox="0 0 390.48 557.83">
  <defs>
    <style>
      .cls-1 {
        fill: #fff;
        fill-rule: evenodd;
      }
    </style>
  </defs>
  <g id="Layer_1-2" data-name="Layer 1">
    <path class="cls-1" d="M195.24,432.35c34.94,0,63.26,28.09,63.26,62.74s-28.32,62.74-63.26,62.74-63.26-28.09-63.26-62.74,28.32-62.74,63.26-62.74ZM195.24,0c107.72,0,195.24,86.61,195.24,193.61s-87.52,193.61-195.24,193.61S0,300.61,0,193.61,87.51,0,195.24,0ZM195.24,256.34c34.97,0,63.26-28.06,63.26-62.73s-28.29-62.74-63.26-62.74-63.26,28.06-63.26,62.74,28.29,62.73,63.26,62.73Z"/>
  </g>
</svg>